<!--Copyright 2022 facefunk. All rights reserved.--><svg xmlns="http://www.w3.org/2000/svg" viewBox="0 0 1024 1024" enable-background="new 0 0 1024 1024"><g id="Layer_1" display="none"><path fill="#fff" stroke="#231f20" stroke-miterlimit="10" d="M201 535c-2.5.0-5-.8-7.1-2.3C190 530 189 525 189 521L2e2 461 156 418c-3.3-3.2-4.4-8-3-12.3s5.2-7.5 9.7-8.2L223 389l27-54.8c2-4.1 6.2-6.7 10.8-6.7S270 330 272 334l27 54.8L359 397c4.5.7 8.3 3.8 9.7 8.2 1.4 4.3.2 9.1-3 12.3L322 461 332 521c.8 4.5-1.1 9.1-4.8 11.7-2.1 1.5-4.6 2.3-7.1 2.3-1.9.0-3.8-.5-5.6-1.4L261 505 207 533c-1.7.9-3.6 1.4-5.5 1.4z"/><path fill="#fff" stroke="#231f20" stroke-miterlimit="10" d="M267 493c-2-1.1-4.3-1.6-6.5-1.6s-4.5.5-6.5 1.6L204 519 213 463c.8-4.5-.7-9.2-4-12.4L169 411 225 403c4.6-.7 8.5-3.5 10.5-7.7L261 344 286 395c2 4.1 6 7 10.5 7.7L353 411 312 451c-3.3 3.2-4.8 7.9-4 12.4L318 519 267 493z"/><path fill="#fff" stroke="#231f20" stroke-miterlimit="10" d="M446 535c-2.5.0-5-.8-7.1-2.3C435 530 433 525 434 521L444 461 4e2 418c-3.3-3.2-4.4-8-3-12.3s5.2-7.5 9.7-8.2L467 389l27-54.8c2-4.1 6.2-6.7 10.8-6.7S514 330 516 334l27 54.8L604 397c4.5.7 8.3 3.8 9.7 8.2 1.4 4.3.2 9.1-3 12.3L567 461 577 521c.8 4.5-1.1 9.1-4.8 11.7-2.1 1.5-4.6 2.3-7.1 2.3-1.9.0-3.8-.5-5.6-1.4L505 505 451 533c-1.7.9-3.6 1.4-5.5 1.4z"/><path fill="#fff" stroke="#231f20" stroke-miterlimit="10" d="M512 493c-2-1.1-4.3-1.6-6.5-1.6s-4.5.5-6.5 1.6L448 519 458 463c.8-4.5-.7-9.2-4-12.4L413 411 469 403c4.6-.7 8.5-3.5 10.5-7.7L505 344 530 395c2 4.1 6 7 10.5 7.7L597 411 556 451c-3.3 3.2-4.8 7.9-4 12.4L562 519 512 493z"/><circle fill="none" stroke="#231f20" stroke-width=".321" stroke-miterlimit="10" cx="383" cy="508" r="92.8"/><path fill="none" stroke="#231f20" stroke-width=".321" stroke-miterlimit="10" d="M383 587C339 587 304 552 304 508S339 429 383 429C426 429 462 465 462 508S426 587 383 587z"/><path fill="#ffe551" d="M897 466c2.5 7.7.4 16.1-5.4 21.7L814 563 833 669c1.4 8-1.9 16-8.4 20.7-3.7 2.7-8.1 4-12.5 4-3.4.0-6.8-.8-9.9-2.4L706 641 611 692C608 693 604 694 601 694c-4.4.0-8.8-1.4-12.5-4C582 685 579 677 580 669L598 563 563 528C542 515 517 508 491 508 464 508 439 515 418 528h0L383 563 401 669c1.4 8-1.9 16-8.4 20.7-3.7 2.7-8.1 4-12.5 4-3.4.0-6.8-.8-9.9-2.4L275 641 179 692C176 693 172 694 169 694c-4.4.0-8.8-1.4-12.5-4C150 685 147 677 148 669L166 563 89 488c-5.8-5.6-7.9-14.1-5.4-21.7C86.1 458 92.7 453 101 451L208 436 255 339C259 332 266 327 274 327S290 332 293 339L341 436 448 451C456 453 463 458 465 466c2.2 6.9.8 14.3-3.7 19.9 9.4-1.7 19-2.5 28.9-2.5s19.5.9 28.9 2.5C515 480 513 473 515 466 518 458 525 453 533 451L639 436 687 339C691 332 698 327 706 327S721 332 725 339L773 436 880 451C888 453 895 458 897 466zM797 545 869 475 770 460C762 459 755 454 751 447L707 356 662 447C658 454 651 459 643 460L544 475 578 508 616 545C621 551 624 559 623 567L606 666 695 619C699 618 703 617 707 617c4 0 7.9 1 11.5 2.8L807 666 790 567c-1.5-8 1.2-16.2 7-21.8zm-432 0L437 475 338 460C329 459 323 454 319 447L274 356 230 447C226 454 219 459 211 460L111 475 184 545C189 551 192 559 191 567L174 666 263 620C266 618 270 617 274 617c4 0 7.9 1 11.5 2.8L326 641v0L375 666 362 592v0L358 567c-1.5-8 1.2-16.2 7-21.8z"/></g><g id="Layer_1_copy"><g id="XMLID_1_"><linearGradient id="outline_1_" gradientUnits="userSpaceOnUse" x1="523" y1="687" x2="523" y2="309" gradientTransform="matrix(0.866 -0.5 0.5 0.866 -189.6119 313.613)"><stop offset="0" style="stop-color:#BD2026"/><stop offset="1" style="stop-color:#1771DE"/></linearGradient><path id="outline" fill="url(#outline_1_)" d="M247 915c-1.3.0-2.7-.1-4.1-.2C228 914 216 904 210 890L163 761l-133-34C14.8 723 4 712 .9 698S3.1 668 14.8 659L123 574l-9-137C113 422 120 408 133 4e2 139 397 146 395 153 395c7.7.0 15.1 2.3 21.5 6.5L289 478l128-51C421 425 426 424 431 424c9.6.0 18.8 3.5 25.9 9.9C461 438 464 443 467 448 472 444 479 440 485 436c6.3-3.6 12.8-7 19.3-10C501 422 498 416 497 411 494 397 5e2 381 511 372L619 287l-9-137C609 135 617 121 630 114 635 110 642 108 649 108c7.7.0 15.1 2.3 21.5 6.5L785 191l128-51C917 139 922 138 927 138c9.6.0 18.8 3.5 25.9 10C964 158 968 173 964 187L927 320l88 106C1020 437 1030 452 1020 466c-3.3 7.5-8.9 13.7-16 17.8C999 487 993 489 987 489L849 494 776 611C772 616 768 621 762 624 756 627 750 629 743 629c-1.3.0-2.7-.1-4.1-.2C724 627 712 617 707 604L659 474 601 460c-.9.0-1.8.0-2.8.0C568 460 538 468 512 483 484 499 462 522 447 549L431 606l88 106C528 724 530 739 524 753 521 760 515 766 508 770 503 774 497 775 490 776L353 781 279 897C276 903 271 907 266 910c-5.8 3.2-12.5 5-19.2 5z"/><linearGradient id="frame_1_" gradientUnits="userSpaceOnUse" x1="523" y1="679" x2="523" y2="316" gradientTransform="matrix(0.866 -0.5 0.5 0.866 -189.6119 313.613)"><stop offset="411e-9" style="stop-color:#FFCC05"/><stop offset="1" style="stop-color:#DF8726"/></linearGradient><path id="frame" fill="url(#frame_1_)" d="M946 156C954 163 957 174 954 184L916 319c-.5 1.7-.1 3.5 1 4.8l89.8 108c6.8 8.2 8.4 19.6 4.1 29.4-2.5 5.5-6.6 10-11.7 12.9C995 477 991 478 986 478L846 484c-1.7.1-3.3 1-4.3 2.5l-75 119c-2.5 4-5.9 7.1-9.7 9.3-5.1 2.9-11 4.3-17 3.6C729 617 720 610 717 6e2L668 468c-.6-1.6-2-2.9-3.7-3.3L603 449h-.1C570 449 537 456 506 474S453 516 437 545L420 606c-.5 1.7-.1 3.5 1 4.8L510 719C517 727 519 738 515 748 512 754 508 758 503 761 499 763 495 765 490 765L350 770c-1.7.1-3.3 1-4.3 2.5l-75 119c-2.5 4-5.8 7.1-9.7 9.3-5.1 2.9-11 4.3-17 3.6C233 903 224 896 220 886L172 755c-.6-1.6-2-2.9-3.7-3.3L31.8 717C21.4 714 13.4 706 11.2 695 9 685 12.9 674 21.3 667l110-87c1.4-1.1 2.1-2.8 2-4.5L125 436C124 425 129 415 139 410s20.8-5 29.7 1l117 78c1.5 1 3.3 1.2 4.9.5l130-52c10-4 21.3-1.9 29.3 5.2C455 447 458 454 459 462c.1 2.2 2.6 3.3 4.3 2C472 457 481 451 490 445 5e2 440 509 435 519 431c2-.8 2.3-3.5.4-4.7C514 423 509 416 507 409 505 398 509 388 518 381l110-87c1.4-1.1 2.1-2.8 2-4.5L621 149C620 139 625 129 635 123c9.3-5.4 20.8-5 29.7 1l117 78c1.5 1 3.3 1.2 4.9.5l131-52C927 147 938 149 946 156z"/><g id="lens"><radialGradient id="SVGID_1_" cx="746" cy="296" r="394" gradientTransform="matrix(0.866 -0.5 0.5 0.866 -189.6119 313.613)" gradientUnits="userSpaceOnUse"><stop offset=".336" style="stop-color:#FFF8E9"/><stop offset=".439" style="stop-color:#A7C4A1"/><stop offset=".643" style="stop-color:#88702B"/><stop offset=".73" style="stop-color:#8C602D"/><stop offset="1" style="stop-color:#3B2F32"/></radialGradient><path fill="url(#SVGID_1_)" d="M884 313 919 190c.6-2.1-1.5-4-3.5-3.2L796 234c-10 4-21.4 2.8-30.4-3.2L659 160c-1.8-1.2-4.3.2-4.1 2.4l8.4 128C664 301 659 311 651 318L550 397c-1.7 1.4-1.1 4.1 1 4.7L607 416l68 17.3C686 436 694 444 698 454L742 575c.8 2.1 3.6 2.4 4.7.5L816 467C818 462 822 458 827 456 831 453 837 452 842 451l128-5.1c2.2-.1 3.3-2.7 1.9-4.3L890 343C883 335 881 324 884 313z"/><path fill="#3b2f32" d="M556 403l98.9-78C663 319 668 308 667 298L659 169c-.1-2.2 2.3-3.6 4.1-2.4L770 238c9 6 20.3 7.2 30.4 3.2L917 195l1.5-5.2c.6-2.1-1.5-4-3.5-3.2L796 234c-10 4-21.4 2.8-30.4-3.2L659 160c-1.8-1.2-4.3.2-4.1 2.4l8.4 128C664 301 659 311 651 318L550 397c-1.7 1.4-1.1 4.1 1 4.7L556 403z"/><path fill="#3b2f32" d="M697 453c.2.4.3.8.5 1.2L742 575c.4 1 1.3 1.6 2.2 1.7L702 462C701 458 699 456 697 453z"/><path fill="#3b2f32" d="M890 343c-.3-.3-.5-.7-.8-1 1.3 3 3 5.9 5.1 8.5l78.1 94c.4-.9.3-1.9-.4-2.8L890 343z"/></g><g id="lens_1_"><radialGradient id="SVGID_2_" cx="1110" cy="296" r="394" gradientTransform="matrix(-0.866 0.5 0.5 0.866 1033.8761 -392.7681)" gradientUnits="userSpaceOnUse"><stop offset=".336" style="stop-color:#FFF8E9"/><stop offset=".439" style="stop-color:#A7C4A1"/><stop offset=".643" style="stop-color:#88702B"/><stop offset=".73" style="stop-color:#8C602D"/><stop offset="1" style="stop-color:#3B2F32"/></radialGradient><path fill="url(#SVGID_2_)" d="M201 741 246 861c.8 2.1 3.6 2.4 4.7.5L319 753C322 748 326 745 331 742S340 738 346 738l128-5.1c2.2-.1 3.3-2.7 1.9-4.3L394 630C387 621 384 610 387 6e2l19-67.6 15.8-56c.6-2.1-1.5-4-3.5-3.2L299 520c-10 4-21.4 2.8-30.4-3.2L162 446c-1.8-1.2-4.3.2-4.1 2.4l8.4 128C167 587 163 598 154 604L53.4 684c-1.7 1.4-1.1 4.1 1 4.7L179 720C189 723 198 731 201 741z"/><path fill="#3b2f32" d="M421 481 304 528c-10 4-21.4 2.8-30.4-3.2L167 453c-1.8-1.2-4.3.2-4.1 2.4l8.4 128C172 595 167 605 159 612l-98.9 78-5.2-1.3c-2.1-.5-2.7-3.3-1-4.7L154 604C163 598 167 587 167 576L158 448c-.1-2.2 2.3-3.6 4.1-2.4L269 517c9 6 20.3 7.2 30.4 3.2L419 473c2-.8 4.1 1.1 3.5 3.2L421 481z"/><path fill="#3b2f32" d="M393 629c.3.3.5.7.8 1l82 98.7c.7.8.8 1.9.4 2.8L398 637C396 635 394 632 393 629z"/><path fill="#3b2f32" d="M201 741c-.2-.4-.3-.8-.5-1.2 2 2.6 3.6 5.5 4.8 8.7L248 863c-.9-.1-1.8-.7-2.2-1.7L201 741z"/></g><g id="shading" opacity=".25"><path d="M408 611c6.5-1.4 11-2.3 11-2.3l18-63.7C453 516 476 491 507 474S570 449 603 449L667 466s3.1-3.5 7.5-8.3c0 0-69.2-17.6-69.1-17.8-76.3-2-141 34.6-177 101L408 611z"/><g id="right"><path d="M518 381c0 .1-.1.1-.2.2C512 386 509 392 508 399 508 404 510 410 517 416c2.3 1.7 5.2 2.2 7.6 3.9.1.1.9.7 1.2 2.5.9 5.4-6 9.5-6.1 9.5-.1-.1-.1-.2-.1-.2 2-1.1 2.1-3.6.4-4.7C514 423 509 416 507 409 505 398 509 387 518 381c227e-15.1.1.2.2.3"/><path d="M746 576c0 .1-3.6 1.6-5.9 1.7-2.4.2-3.8-.7-4.3-1L692 456C691 451 689 440 675 435l.2-.9C685 436 694 444 698 454L742 574c.6 1.6 2.5 2.2 3.8 1.4-114e-15.1.1.2.2.3"/><path d="M767 605 846 484l140-5.5c4.6-.2 9.1-1.5 12.9-3.7 5.1-2.9 9.2-7.4 11.7-12.9 4.3-9.8 2.8-21.2-4.1-29.4.0.0-1.2 1-3.1 2.6C1010 448 1e3 466 986 468L840 474S758 6e2 758 6e2C749 612 729 610 720 599c-2.3.9-3.7 1.4-3.7 1.4C720 610 729 617 740 618c6 .6 12-.7 17-3.6C761 612 764 609 767 605z"/><line fill="#fff" x1="819" y1="469" x2="819" y2="469"/><path d="M884 313C881 324 883 335 890 343l82 98.7c1.1 1.3.6 3.2-1.9 4.4.0.0.0.1.0.3 2.5-1.2 5.6-4.5 5.6-4.5 1.4-1.7 1.5-3.2 1.4-4.3-.7-.8-82-98.7-82-98.7s0 0 0 0C883 330 884 318 884 315c.1-.3.2-1 .2-1l-.9-.4z"/><path d="M914 327c-.5.1-7.9-1.7-7.6-10.1L945 182c-.1-.3.3-.6.4-.8C948 175 949 164 942 156 936 149 927 147 917 151c9.9-4.2 21.2-2.1 29.2 5C954 163 957 174 954 184L916 319c-.5 1.7-.1 3.5 1 4.8.1.0-1.1 1-3 2.6"/><path d="M650 318 550 397c-1.7 1.4-1.1 4.1 1 4.7.0.0-.1.3-.2.9.0.0-4.2 2-7.8-.1-2.1-1.3-3.5-3.8-3.5-6.5.0-4.1 2.6-6.5 3.7-7.5"/><path fill="#fde452" d="M518 381c.1.1.2.3.4.5-.2-.2-.3-.3-.4-.5z"/><path d="M543 389 644 309C647 307 652 302 654 291l-8-128C642 154 651 146 659 149c2.7.9 4 2.7 4.5 3.5L771 224C774 225 783 228 792 224L911 176c1.6-.6 9.3-2.3 11.8 4.6 1.6 4.6-1.7 7.6-3.3 9.1-.6-.2-.9-.2-.9-.2.6-2.1-1.5-4-3.5-3.2L796 234c-10 4-21.4 2.8-30.4-3.2L659 160c-.9-.6-2-.6-2.8-.1S654 161 655 162l8.4 128C664 301 659 311 651 318"/></g><g id="left"><path d="M420 437c.1.0.2-.1.2-.1 6.6-2.5 14.1-2.2 19.9 1C445 440 450 445 451 454c.3 2.9-.7 5.7-.4 8.5.0.1.2 1.1 1.6 2.3 4.2 3.5 11.2-.5 11.2-.5-.1-.1-.1-.2-.1-.2-2 1.2-4.2.1-4.3-2C458 454 455 447 449 442 441 435 430 433 420 437c.2.0.3.1.3.2"/><path d="M475 733c.1.0 3.2-2.3 4.5-4.3 1.4-2 1.3-3.6 1.3-4.2L399 625C395 622 386 615 388 6e2l-.9-.2C384 610 387 621 394 630l82 98.7c1.1 1.3.6 3.2-.7 4 .1-114e-15.1.1.1.2"/><path d="M503 761C508 758 512 754 515 748 519 738 518 727 511 719c0 0-1.2 1-3.1 2.6C513 734 505 753 489 754c0 .3-150 8.3-150 8.3s-78 124-78 124C252 899 232 896 224 885c-2.3.9-3.8 1.4-3.8 1.4C224 896 233 904 244 905c6 .6 12-.7 17-3.6 3.9-2.2 7.3-5.4 9.7-9.3l75-119 145-8c4.7-.3 9.1-1.6 13-3.9z"/><line fill="#fff" x1="346" y1="742" x2="346" y2="742"/><path d="M179 721s.6.2.9.3C183 723 194 728 195 743S239 862 240 863c.9.6 2.2 1.3 4.4.9.0.0 4.5-1 6.8-2.6-.1-.1-.2-.1-.2-.1-2.3 1.7-4.1 1.1-4.7-.5L201 741C198 731 189 723 179 720l-.2.8z"/><path d="M175 753c.4-.4 2.5-7.7-4.9-11.6L34.3 707c-.2-.2-.6-.1-.9-.1-6.1-.5-17-5-20.1-14.5-2.9-8.8.2-18.1 8.2-24.9C12.9 674 9 685 11.2 695S21.4 714 31.8 717L168 751c1.7.4 3.1 1.7 3.7 3.3C172 755 173 754 175 753"/><path d="M299 521 419 473c2-.8 4.1 1.1 3.5 3.2.0.0.3.1.9.2.0.0 3.8-2.6 3.8-6.8.0-2.5-1.6-4.9-3.9-6.3-3.5-2-6.9-1-8.3-.6"/><path fill="#fde452" d="M420 437c.1.1.1.4.3.6-.1-.2-.2-.4-.3-.6z"/><path d="M415 463 295 511C292 512 284 514 274 510L167 439C162 431 150 435 149 443c-.6 2.8.4 4.8.8 5.6l8.2 129C157 581 155 590 147 596L46.5 675c-1.3 1.1-6.6 7-1.9 12.5 3.1 3.7 7.4 2.3 9.5 1.6.1-.6.2-.9.2-.9-2.1-.5-2.7-3.3-1-4.7L154 604C163 598 167 587 167 576L158 448c-.1-1.1.5-2 1.3-2.5s1.9-.5 2.8.1L269 517c9 6 20.3 7.2 30.4 3.2"/></g></g><g id="highlights" opacity=".5"><path fill="#fff" d="M491 449C480 455 471 461 465 466 463 468 459 471 451 473c-.5.1-1.4.5-1.6 1-.5 1.7 7 10 23.5 2.8C481 470 490 464 498 459 506 455 516 450 525 446 540 436 536 425 534 425c-.5-.1-1.3.4-1.6.9-4.8 5.7-9.9 8-12.3 9.1C513 437 503 442 491 449z"/><g id="right_1_"><path fill="#fff" d="M843 467c1.2.0 126-3.8 130-5.4C992 454 989 440 987 439c-.2-.1-.8-.4-2.4 1.2C979 446 972 449 971 450c-1.5.1-129 5.9-129 5.9C833 454 823 460 819 469 818 470 750 577 748 578 747 580 745 581 742 582c-2.6 1.1-5.1 1.8-6 2-2.3.6-3.1.8-3.3 1.2-1.1 1.9 3.4 5.1 8.3 5.9C749 592 755 589 757 588c.4-.6 71.5-113 71.5-113C833 469 836 467 843 467z"/><line fill="#fff" x1="819" y1="469" x2="819" y2="469"/><path fill="#fff" d="M924 191c2.6-1.8 4.2-4.7 6.9-6.3 1.6-.9 3.5 2.2 2 8.9L899 317c-.2.6-.2.6-1 7.9-.6 5.4-7.8-3.3-7.9-9.6.0-.3.1-.6.0-.8L924 191"/><path fill="#fff" d="M547 417c-7-2.3-7.3-5.4-7.3-5.4 1-.4 9.6-3.7 9.6-3.7L674 440c1 .6 3.9 2.3 5.8 5.8 1.9 3.3 1.6 6.2 1 6.5-.5.2-.8.4-2.7-.7-2.3-1.2-3.9-1.9-5.9-2.4C672 449 547 417 547 417z"/><path fill="#fde452" d="M518 381c.1.1.2.3.4.5-.2-.2-.3-.3-.4-.5z"/><path fill="#fff" d="M923 165c4.3-1.7 8.6-.9 11.9.6 1.4.7 1.9.7 2 .7 2.1-.3 2.2-7-3.7-11C927 151 918 154 918 154c.7-.3-129 51.4-130 52C784 207 781 209 777 207c-4.5-2.8-106-71-117-78C650 114 619 132 627 149c0 0 8.9 137 9.2 140s-6.3 7.4-7 7.9C626 3e2 520 384 519 384s-5.6 5.3-4.9 13c.6 7.1 6.4 10.3 7.7 8.7.1-.1.3-.5.4-2.1.3-3.6 1.7-7.7 5.4-10.6L638 306c5.5-4.3 8.5-10.9 8-17.9-.3-3.4-9.1-140-9.1-140-.3-4.6 2-9.1 6.1-11.4 4-2.3 9-2.2 12.9.4l117 78C778 219 786 220 792 217L923 165z"/></g><g id="left_1_"><path fill="#fff" d="M346 753c.1.0 133-5.5 133-5.6 2.1-1.2 8.3-5 11-12 1.7-4.6 1.2-10.1-1-10.1-.4.0-1 .6-2.7 2.3-.7.7-2.4 2.5-4.7 4.2-2.5 1.8-3.9 2.5-6.1 3.5-2 .1-129 6.5-130 6.5C336 741 327 746 323 755c0 0-68.6 107-69.4 108-1.5.9-8 5.5-15 7.4-2.2.6-2.3 1.2-2.3 1.5C236 875 246 884 263 871c3.3-2.7 69-109 69.6-110C336 756 339 754 346 753z"/><line fill="#fff" x1="346" y1="742" x2="346" y2="742"/><path fill="#fff" d="M52.8 695c-2.9 1.3-6.2 1.3-9 2.8-1.6.9.1 4.1 6.7 6.2L175 735c.6.1.6.1 7.4 3.1 5 2.2 1.1-8.4-4.3-11.7-.2-.1-.6-.2-.7-.4L52.8 695"/><path fill="#fff" d="M437 480c1.6-7.2-1-9-1-9-.8.7-8 6.5-8 6.5L393 601c0 1.1.1 4.5 2.1 7.9 1.9 3.3 4.6 4.5 5.1 4.1.4-.3.7-.5.8-2.7.1-2.6.3-4.4.8-6.3.1-.1 35-124 35-124z"/><path fill="#fde452" d="M420 437c.1.1.1.4.3.6-.1-.2-.2-.4-.3-.6z"/><path fill="#fff" d="M142 593c5.5-4.4 8.5-11.1 8-18.1L140 435C140 430 142 426 146 423c4-2.3 9-2.2 12.9.4.0.0 114 76.1 117 78.1 5.8 3.9 13 4.6 19.5 2l130-52c4.3-1.7 8.6-.9 11.9.6 1.4.7 1.9.7 2 .7 2.1-.3 2.2-7-3.7-11C430 438 423 440 423 440S296 490 292 492c-.8.3-7.7 3.9-10.3 2.1-2.6-1.8-117-78-117-78C154 401 123 418 131 434c.8 12.6 9 135 9.1 140 .1 4.7-3.1 6.3-6.4 8.9-1.3 1.1-111 87.4-110 86.9-.2.2-6.5 6.2-5.9 13.8.6 7.1 6.4 10.3 7.7 8.7.1-.1.3-.5.4-2.1.3-3.6 1.7-7.7 5.4-10.6l111-87z"/></g></g></g></g></svg>
